<?xml version="1.0" encoding="UTF-8"?>
<svg xmlns="http://www.w3.org/2000/svg" width="727.7653" height="520.206" viewBox="0 0 727.7653 520.206">
  <rect x="74.9782" y="52.6111" width="621.3463" height="457.9779" rx="65.1515" ry="65.1515" style="fill: #ded2c1;"/>
  <rect x="91.1386" y="217.0916" width="589.0257" height="275.5586" rx="56.52" ry="56.52" style="fill: #fff1de;"/>
  <path d="M718.0791,201.9081v-68.4574c0-12.1091-9.8164-21.9255-21.9255-21.9255H231.4089c-2.8026,0-5.0745,2.2719-5.0745,5.0745v80.234c0,2.8026,2.2719,5.0745,5.0745,5.0745h464.9157v12.2357s21.7546.1393,21.7546.1393v-12.375h0Z" style="fill: #baaa93;"/>
  <path d="M696.3246,226.323l9.5288.0466c6.7521,0,12.2257-5.4736,12.2257-12.2257h0c0-6.7521-5.4736-12.2257-12.2257-12.2257l-9.5288-.0466v24.4515Z" style="fill: #706759;"/>
</svg>
